# xmcd
#
# Track frame offsets: 
#        150
#        16875
#        33150
#        52875
#        65700
#        83625
#        91575
#        108075
#        125250
#        140550
#        157500
#        172050
#
# Disc length: 2457 seconds
#
# Revision: 0
# Processed by: cddbd v1.5.2PL0 Copyright (c) Steve Scherf et al.
# Submitted via: ExactAudioCopy v0.95b4
#
DISCID=8409970c
DTITLE=Maisha Grant - with Bluesfeeling
DYEAR=1989
DGENRE=Blues
TTITLE0=Take me to the River
TTITLE1=Won't you be my Chauffeur
TTITLE2=Help me through the Day
TTITLE3=Woke up this Morning
TTITLE4=My Imagination
TTITLE5=In the Summertime
TTITLE6=Mellow down easy
TTITLE7=If loving you is wrong
TTITLE8=Mama talk to your Daughter
TTITLE9=You got to find yourself
TTITLE10=Please love me
TTITLE11=Can't help lovin' dat Man
EXTD=
EXTT0=
EXTT1=
EXTT2=
EXTT3=
EXTT4=
EXTT5=
EXTT6=
EXTT7=
EXTT8=
EXTT9=
EXTT10=
EXTT11=
PLAYORDER=
